<svg xmlns="http://www.w3.org/2000/svg" viewBox="0 0 64 64" fill="none">
  <!-- Background circle -->
  <circle cx="32" cy="32" r="30" fill="#ff6b6b"/>
  <circle cx="32" cy="32" r="28" fill="#ff8e8e"/>
  
  <!-- Inflatable castle shape -->
  <path d="M16 44 L16 28 Q16 24 20 24 L44 24 Q48 24 48 28 L48 44 Z" fill="white"/>
  
  <!-- Castle towers -->
  <rect x="14" y="20" width="8" height="24" fill="white" rx="2"/>
  <rect x="42" y="20" width="8" height="24" fill="white" rx="2"/>
  <rect x="28" y="16" width="8" height="28" fill="white" rx="2"/>
  
  <!-- Tower tops -->
  <path d="M14 20 L18 12 L22 20 Z" fill="#4ecdc4"/>
  <path d="M42 20 L46 12 L50 20 Z" fill="#4ecdc4"/>
  <path d="M28 16 L32 8 L36 16 Z" fill="#4ecdc4"/>
  
  <!-- Castle details -->
  <rect x="24" y="32" width="6" height="8" fill="#ff6b6b" rx="1"/>
  <rect x="34" y="32" width="6" height="8" fill="#ff6b6b" rx="1"/>
  <rect x="29" y="36" width="6" height="8" fill="#ff6b6b" rx="3"/>
  
  <!-- Fun elements -->
  <circle cx="20" cy="26" r="2" fill="#ffe66d"/>
  <circle cx="44" cy="26" r="2" fill="#ffe66d"/>
  <circle cx="32" cy="22" r="2" fill="#ffe66d"/>
</svg>
